<svg xmlns="http://www.w3.org/2000/svg" viewBox="0 0 784.68 528.77"><defs><style>.cls-1{fill:#fff;}</style></defs><g id="Layer_2" data-name="Layer 2"><g id="Layer_1-2" data-name="Layer 1"><path class="cls-1" d="M660.38,395.89l38.36,23.88A307.24,307.24,0,0,1,607,524.56a22.46,22.46,0,0,1-26.18-36.51,258.27,258.27,0,0,0,53.13-50.94A262,262,0,0,0,660.38,395.89Z"/><path class="cls-1" d="M734.19,277.15a305.42,305.42,0,0,1-21,111.14L674.2,364A259,259,0,0,0,580.81,66.26,22.47,22.47,0,0,1,607,29.73a303.85,303.85,0,0,1,127.2,247.42Z"/><path class="cls-1" d="M569.2,339.15l38.41,23.9a197.69,197.69,0,0,1-79.77,85.54,22.47,22.47,0,1,1-22.3-39q4.92-2.82,9.57-5.95a151.67,151.67,0,0,0,27.24-23.52A153.34,153.34,0,0,0,569.2,339.15Z"/><path class="cls-1" d="M627.37,277.15A196.27,196.27,0,0,1,620,330.31l-40.22-25a152.39,152.39,0,0,0-74.27-160.57,22.46,22.46,0,1,1,22.3-39A197.93,197.93,0,0,1,627.37,277.15Z"/><path class="cls-1" d="M475.48,280.82,516.1,306.1a106.23,106.23,0,0,1-15.33,30.71,101.55,101.55,0,0,1-9.59,11.46,92.07,92.07,0,0,1-30.86,21.26,81.42,81.42,0,0,1-11.06,3.67,22,22,0,0,1-5.53.7,22.47,22.47,0,0,1-5.51-44.25,40.42,40.42,0,0,0,13.12-6.17C464.42,314.33,474.21,297.65,475.48,280.82Z"/><path class="cls-1" d="M520.12,268.13l-101.29-63a22.91,22.91,0,0,1,.29-7.32,22.48,22.48,0,0,1,26.51-17.51C484.86,188.28,516.17,225.93,520.12,268.13Z"/><path class="cls-1" d="M369.2,20.31V174.22L232.12,88.92,338.78,2.75A20.28,20.28,0,0,1,369.2,20.31Z"/><path class="cls-1" d="M203.83,111.78,369.2,214.68V501.86a20.27,20.27,0,0,1-30.42,17.56L178.71,396.08h-149A29.72,29.72,0,0,1,0,366.36V162.18a29.72,29.72,0,0,1,29.72-29.72H178.24Z"/><path class="cls-1" d="M783.51,481.67,765.84,510a7.78,7.78,0,0,1-10.71,2.5L672.31,461l-38.37-23.89-53-32.95-38.64-24.05-51.17-31.84-39.84-24.79L369.2,272.36,144.39,132.46,13.94,51.27a7.77,7.77,0,0,1-2.5-10.71L29.1,12.19A7.78,7.78,0,0,1,39.81,9.7l164,102.08L369.2,214.68l106.28,66.14L516.1,306.1l53.1,33,38.41,23.9,52.77,32.84,38.36,23.88L781,471A7.77,7.77,0,0,1,783.51,481.67Z"/></g></g></svg>