<svg xmlns="http://www.w3.org/2000/svg" viewBox="0 0 734.19 528.77"><defs><style>.cls-1{fill:#fff;}</style></defs><g id="Layer_2" data-name="Layer 2"><g id="Layer_1-2" data-name="Layer 1"><path class="cls-1" d="M593.92,528.77A22.47,22.47,0,0,1,580.82,488a259.29,259.29,0,0,0,0-421.78A22.46,22.46,0,1,1,607,29.74a304.35,304.35,0,0,1,92.46,388.69A306.75,306.75,0,0,1,607,524.57,22.45,22.45,0,0,1,593.92,528.77Z"/><path class="cls-1" d="M516.71,451.56a22.46,22.46,0,0,1-11.17-42,152.49,152.49,0,0,0,0-264.87,22.47,22.47,0,1,1,22.3-39,197.42,197.42,0,0,1,0,342.88A22.39,22.39,0,0,1,516.71,451.56Z"/><path class="cls-1" d="M443.73,373.9a22.47,22.47,0,0,1-5.51-44.25c20.28-5.14,37.41-29.18,37.41-52.5,0-23.92-18.22-48.62-39-52.86a22.46,22.46,0,0,1,9-44c42,8.57,74.94,51.13,74.94,96.88,0,20.77-7,42-19.78,59.66-13.27,18.41-31.57,31.34-51.52,36.39A22.48,22.48,0,0,1,443.73,373.9Z"/><path class="cls-1" d="M338.77,2.74,178.23,132.46H29.72A29.72,29.72,0,0,0,0,162.18V366.35a29.72,29.72,0,0,0,29.72,29.72h149L338.77,519.42a20.29,20.29,0,0,0,30.43-17.56V20.31A20.29,20.29,0,0,0,338.77,2.74Z"/></g></g></svg>