<svg xmlns="http://www.w3.org/2000/svg" viewBox="0 0 200 216.79"><defs><style>.cls-1{fill:#fff;}</style></defs><g id="Layer_2" data-name="Layer 2"><g id="Layer_1-2" data-name="Layer 1"><path class="cls-1" d="M161.8,216.79c-1.9,0-3.78-1.34-5-3.85-2-4.13-1.33-9.89,1.41-12.85,18.49-20,29.53-52.28,29.53-86.48s-11-66.53-29.53-86.48c-2.74-3-3.38-8.71-1.41-12.85s5.79-5.09,8.54-2.12c10.49,11.31,19.19,26.36,25.18,43.52A177.87,177.87,0,0,1,200,113.61a177.83,177.83,0,0,1-9.46,57.93c-6,17.16-14.69,32.21-25.18,43.53A4.88,4.88,0,0,1,161.8,216.79Z"/><path class="cls-1" d="M140.77,185.13c-2.12,0-4.18-1.67-5.31-4.64-1.68-4.42-.66-10.05,2.27-12.57,12.92-11.12,21-31.93,21-54.31s-8-43.18-21-54.3c-2.93-2.53-3.95-8.16-2.27-12.57s5.41-6,8.34-3.43c16.72,14.39,27.11,41.33,27.11,70.3s-10.39,55.91-27.11,70.3A4.58,4.58,0,0,1,140.77,185.13Z"/><path class="cls-1" d="M120.9,153.28c-2.74,0-5.23-2.77-5.93-6.95-.83-4.93,1.15-9.94,4.43-11.19,5.52-2.11,10.19-12,10.19-21.53,0-9.81-5-19.94-10.62-21.68-3.31-1-5.45-5.88-4.77-10.86s3.91-8.2,7.22-7.19c11.44,3.52,20.4,21,20.4,39.73a57.71,57.71,0,0,1-5.39,24.47c-3.61,7.55-8.59,12.84-14,14.92A4.28,4.28,0,0,1,120.9,153.28Z"/><path class="cls-1" d="M92.31,1.13,48.56,54.31H8.09C3.62,54.31,0,59.76,0,66.5v83.7c0,6.73,3.62,12.18,8.09,12.18h40.6L92.31,213c3.68,3.21,8.29-.79,8.29-7.19V8.33C100.6,1.93,96-2.07,92.31,1.13Z"/></g></g></svg>