<svg xmlns="http://www.w3.org/2000/svg" viewBox="0 0 200 150"><defs><style>.cls-1{fill:#fff;}</style></defs><g id="Layer_2" data-name="Layer 2"><g id="Layer_2-2" data-name="Layer 2"><path class="cls-1" d="M168.32,37.7l9.77-6.78a87.58,87.58,0,0,0-6.73-11.69,86.5,86.5,0,0,0-5.75-7.5A80.83,80.83,0,0,0,154.71,1.2,5.31,5.31,0,0,0,151.38,0a5.57,5.57,0,0,0-4.66,2.66A6.84,6.84,0,0,0,148,11.55a67.86,67.86,0,0,1,7.6,7.08A72.78,72.78,0,0,1,161.58,26,76,76,0,0,1,168.32,37.7Z"/><path class="cls-1" d="M187.13,71.38a95.26,95.26,0,0,0-5.35-31.53l-9.94,6.89a80.72,80.72,0,0,1,3.84,24.64c0,23.66-10.33,46-27.64,59.82a6.86,6.86,0,0,0-1.32,8.9,5.37,5.37,0,0,0,8,1.47,85.14,85.14,0,0,0,23.57-30.11A94.5,94.5,0,0,0,187.13,71.38Z"/><path class="cls-1" d="M145.08,53.79,154.87,47a57.24,57.24,0,0,0-6.79-11.66,52.83,52.83,0,0,0-6.37-7.06,49.87,49.87,0,0,0-7.17-5.54,5.3,5.3,0,0,0-2.84-.85,5.66,5.66,0,0,0-5,3.22,6.77,6.77,0,0,0,2.13,8.69c.84.53,1.65,1.1,2.44,1.69a40.19,40.19,0,0,1,6.94,6.67A44.38,44.38,0,0,1,145.08,53.79Z"/><path class="cls-1" d="M159.9,71.38A61.38,61.38,0,0,0,158,56.3l-10.25,7.1a48,48,0,0,1,.67,8c0,15.48-7.51,29.88-19.6,37.57a6.77,6.77,0,0,0-2.13,8.69,5.43,5.43,0,0,0,7.82,2.37C150.18,110.05,159.9,91.42,159.9,71.38Z"/><path class="cls-1" d="M121.19,70.34l10.35-7.17a31.59,31.59,0,0,0-3.9-8.71,27.9,27.9,0,0,0-2.45-3.25,23.64,23.64,0,0,0-7.86-6,20.42,20.42,0,0,0-2.82-1,5.33,5.33,0,0,0-1.41-.2,5.89,5.89,0,0,0-5.55,4.81,7,7,0,0,0,0,3.19,6.09,6.09,0,0,0,4.13,4.56A9.81,9.81,0,0,1,115,58.24,17.38,17.38,0,0,1,121.19,70.34Z"/><path class="cls-1" d="M132.57,73.94,106.75,91.82a7.24,7.24,0,0,0,.08,2.07c.63,3.45,3.65,5.68,6.75,5C123.58,96.59,131.56,85.91,132.57,73.94Z"/><path class="cls-1" d="M94.1,144.24V100.58l-34.94,24.2,27.19,24.44C89.79,151.44,94.1,148.67,94.1,144.24Z"/><path class="cls-1" d="M52,118.29,94.1,89.1V7.64c0-4.43-4.31-7.2-7.75-5l-40.8,35h-38C3.39,37.64,0,41.42,0,46.07V104c0,4.66,3.39,8.43,7.57,8.43H45.43Z"/><path class="cls-1" d="M199.7,13.36l-4.5-8a1.87,1.87,0,0,0-2.73-.7L171.36,19.23,161.58,26l-13.5,9.35-9.85,6.82-13,9-10.15,7L94.1,72.74,36.8,112.42l-33.25,23a2.34,2.34,0,0,0-.63,3l4.5,8a1.87,1.87,0,0,0,2.73.71l41.8-29L94.1,89.1l27.09-18.76,10.35-7.17,13.54-9.38L154.87,47l13.45-9.31,9.77-6.78,21-14.52A2.35,2.35,0,0,0,199.7,13.36Z"/></g></g></svg>