<?xml version="1.0" encoding="utf-8"?>
<!-- Generator: Adobe Illustrator 25.0.1, SVG Export Plug-In . SVG Version: 6.00 Build 0)  -->
<svg version="1.1" xmlns="http://www.w3.org/2000/svg" xmlns:xlink="http://www.w3.org/1999/xlink" x="0px" y="0px"
	 viewBox="0 0 1456.9 1049.3" style="enable-background:new 0 0 1456.9 1049.3;" xml:space="preserve">
<style type="text/css">
	.st0{fill:#FFFFFF;}
</style>
<g id="Layer_4">
	<g id="Layer_2_1_">
		<g id="Layer_1-2">
			<path class="st0" d="M1178.5,1056.5c-24.6,0-44.6-19.9-44.6-44.5c0-14.4,6.9-27.9,18.6-36.3c134.7-96.5,215.2-253,215.2-418.5
				s-80.4-322-215.2-418.5c-20-14.3-24.6-42.2-10.3-62.2s42.2-24.6,62.2-10.3c245,175.4,323.3,504.4,183.5,771.3
				c-44,83.5-106.8,155.6-183.5,210.6C1196.9,1053.6,1187.8,1056.5,1178.5,1056.5z"/>
			<path class="st0" d="M1025.3,903.2c-24.6,0-44.6-19.9-44.6-44.5c0-16,8.6-30.8,22.5-38.7c145.1-82.8,195.7-267.6,112.8-412.8
				c-26.8-47-65.8-86-112.8-112.8c-21.3-12.4-28.4-39.7-16-61c12.3-21,39.1-28.3,60.3-16.4c121.8,69.6,197.5,200,197.5,340.2
				s-75.7,270.6-197.5,340.2C1040.7,901.2,1033.1,903.3,1025.3,903.2z"/>
			<path class="st0" d="M880.5,749.2c-24.6,0-44.6-20-44.5-44.7c0-20.4,13.9-38.1,33.6-43.1c40.2-10.2,74.2-58,74.2-104.2
				c0-47.5-36.2-96.5-77.4-104.9c-24.1-5.3-39.3-29-34-53.1c5.2-23.6,28.1-38.8,51.9-34.3c83.4,17,148.7,101.4,148.7,192.3
				c0,41.2-13.9,83.3-39.3,118.4c-26.3,36.5-62.6,62.2-102.2,72.2C887.9,748.7,884.2,749.2,880.5,749.2z"/>
			<path class="st0" d="M672.2,12.6L353.6,270.1H59c-32.6,0-59,26.4-59,59v405.1c0,32.6,26.4,59,59,59l0,0h295.6L672.2,1038
				c26.8,15.5,60.4-3.9,60.4-34.8V47.5C732.6,16.5,699-2.8,672.2,12.6z"/>
		</g>
	</g>
</g>
<g id="Layer_1">
</g>
</svg>
