<svg xmlns="http://www.w3.org/2000/svg" viewBox="0 0 1557.1 1049.28"><defs><style>.cls-1{fill:#fff;}</style></defs><g id="Layer_2" data-name="Layer 2"><g id="Layer_1-2" data-name="Layer 1"><path class="cls-1" d="M1310.43,785.59,1386.55,833a609,609,0,0,1-182.06,208,44.57,44.57,0,1,1-51.94-72.45,516.81,516.81,0,0,0,157.88-182.88Z"/><path class="cls-1" d="M1456.91,550a605.74,605.74,0,0,1-41.67,220.55l-77.38-48.17A512.71,512.71,0,0,0,1367.75,550c0-165.49-80.45-321.93-215.2-418.48A44.58,44.58,0,0,1,1204.49,59a602.95,602.95,0,0,1,252.42,491Z"/><path class="cls-1" d="M1129.5,673l76.23,47.44a392.19,392.19,0,0,1-158.31,169.74,44.58,44.58,0,1,1-44.24-77.41q9.77-5.6,19-11.8A304.22,304.22,0,0,0,1129.5,673Z"/><path class="cls-1" d="M1244.93,550a389.18,389.18,0,0,1-14.56,105.49l-79.82-49.66a302.4,302.4,0,0,0-147.37-318.63,44.57,44.57,0,1,1,44.24-77.38C1169.25,279.42,1244.93,409.77,1244.93,550Z"/><path class="cls-1" d="M943.53,557.25l80.61,50.16a211.3,211.3,0,0,1-30.42,60.94,203,203,0,0,1-19,22.74,182.69,182.69,0,0,1-61.23,42.19,162.23,162.23,0,0,1-22,7.29,44.58,44.58,0,0,1-21.92-86.43,79.73,79.73,0,0,0,26-12.25C921.58,623.75,941,590.66,943.53,557.25Z"/><path class="cls-1" d="M1032.11,532.07,831.11,407a45.36,45.36,0,0,1,.58-14.52,44.59,44.59,0,0,1,52.6-34.75C962.15,373.61,1024.27,448.32,1032.11,532.07Z"/><path class="cls-1" d="M732.62,40.3V345.71l-272-169.26,211.64-171C699.09-10,732.62,9.33,732.62,40.3Z"/><path class="cls-1" d="M404.48,221.81,732.62,426V995.87c0,31-33.53,50.34-60.36,34.85L354.63,786H59A59,59,0,0,1,0,727V321.83a59,59,0,0,1,59-59H353.69Z"/><path class="cls-1" d="M1554.76,955.82l-35,56.29a15.43,15.43,0,0,1-21.25,4.95L1334.11,914.79,1258,867.38,1152.89,802l-76.68-47.73L974.68,691.09l-79.06-49.2-163-101.42L286.53,262.85,27.66,101.74a15.43,15.43,0,0,1-4.95-21.26l35-56.29A15.43,15.43,0,0,1,79,19.25L404.48,221.81,732.62,426,943.53,557.25l80.61,50.16L1129.5,673l76.23,47.44,104.7,65.16L1386.55,833l163.27,101.59A15.43,15.43,0,0,1,1554.76,955.82Z"/></g></g></svg>