<svg xmlns="http://www.w3.org/2000/svg" viewBox="0 0 1456.9 1049.27"><defs><style>.cls-1{fill:#fff;}</style></defs><g id="Layer_2" data-name="Layer 2"><g id="Layer_1-2" data-name="Layer 1"><path class="cls-1" d="M1178.56,1049.27a44.57,44.57,0,0,1-26-80.81c134.74-96.54,215.18-253,215.18-418.49s-80.44-322-215.18-418.49A44.57,44.57,0,1,1,1204.48,59,604,604,0,0,1,1388,830.31a608.64,608.64,0,0,1-183.49,210.62A44.37,44.37,0,0,1,1178.56,1049.27Z"/><path class="cls-1" d="M1025.34,896.05a44.58,44.58,0,0,1-22.17-83.28,302.58,302.58,0,0,0,0-525.6,44.58,44.58,0,0,1,44.25-77.4c121.83,69.64,197.52,200,197.52,340.2s-75.69,270.56-197.52,340.2A44.36,44.36,0,0,1,1025.34,896.05Z"/><path class="cls-1" d="M880.52,742a44.59,44.59,0,0,1-10.93-87.8C909.83,644,943.82,596.24,943.82,550c0-47.47-36.15-96.49-77.37-104.9a44.58,44.58,0,0,1,17.83-87.35C967.66,374.73,1033,459.18,1033,550c0,41.22-13.94,83.26-39.26,118.39-26.33,36.53-62.63,62.17-102.22,72.21A44.71,44.71,0,0,1,880.52,742Z"/><path class="cls-1" d="M672.25,5.45,353.67,262.86H59a59,59,0,0,0-59,59V727a59,59,0,0,0,59,59H354.63l317.62,244.76c26.83,15.5,60.38-3.86,60.38-34.84V40.3C732.63,9.33,699.08-10,672.25,5.45Z"/></g></g></svg>